<svg height="512pt" viewBox="0 0 512 512" width="512pt" xmlns="http://www.w3.org/2000/svg">
	<path d="m349.285156 190.378906-18.285156 22.859375v-77.238281h-30v114.738281l-41.714844 52.140625 23.429688 18.742188 18.285156-22.859375v62.238281h30v-99.738281l41.714844-52.140625zm0 0"/>
	<path d="m271 235.011719v-24.011719h-120v30h76.789062l-76.789062 95.988281v24.011719h120v-30h-76.789062zm0 0"/>
	<path d="m256 0c-140.960938 0-256 115.050781-256 256 0 140.960938 115.050781 256 256 256 140.960938 0 256-115.050781 256-256 0-140.960938-115.050781-256-256-256zm0 482c-124.617188 0-226-101.382812-226-226s101.382812-226 226-226 226 101.382812 226 226-101.382812 226-226 226zm0 0"/>
<!--	<path d="m256 61c-107.523438 0-195 87.476562-195 195s87.476562 195 195 195 195-87.476562 195-195-87.476562-195-195-195zm0 360c-90.980469 0-165-74.019531-165-165s74.019531-165 165-165 165 74.019531 165 165-74.019531 165-165 165zm0 0"/>-->
</svg>