<?xml version="1.0" encoding="utf-8"?>
<!-- Svg Vector Icons : http://www.onlinewebfonts.com/icon -->
<!DOCTYPE svg PUBLIC "-//W3C//DTD SVG 1.1//EN" "http://www.w3.org/Graphics/SVG/1.1/DTD/svg11.dtd">
<svg version="1.1" xmlns="http://www.w3.org/2000/svg" xmlns:xlink="http://www.w3.org/1999/xlink" x="0px" y="0px" viewBox="0 0 1000 1000" enable-background="new 0 0 1000 1000" xml:space="preserve">
<metadata> Svg Vector Icons : http://www.onlinewebfonts.com/icon </metadata>
<g><g transform="translate(0.000000,511.000000) scale(0.100000,-0.100000)"><path d="M4468,4982.6c-1066.8-106.5-2154.9-629.2-2933.2-1409.5c-575-573.1-1018.4-1316.5-1235.2-2073.6C-45,308.9,59.6-947.6,590.1-2037.6c708.6-1455.9,2071.6-2455,3694.1-2708.6c315.6-48.4,1117.1-48.4,1432.7,0c1758,274.9,3202.3,1423,3850.9,3064.8c439.5,1115.2,443.4,2418.2,9.7,3545c-445.3,1155.8-1304.9,2096.8-2416.3,2638.9c-555.6,271.1-1082.3,424-1665,482.1C5250.2,5009.8,4719.7,5007.8,4468,4982.6z M5422.5,3997.2c1334-145.2,2503.4-968,3093.9-2176.2c652.5-1335.9,486-2946.7-424-4114.2c-145.2-185.8-464.7-507.3-652.5-658.3c-1432.7-1142.3-3475.3-1136.5-4898.3,13.6c-172.3,139.4-516.9,491.8-640.8,654.4c-528.5,693.1-811.2,1525.6-811.2,2391.1c0,613.7,125.8,1155.8,396.9,1713.4c578.9,1192.6,1752.2,2025.2,3061,2174.2C4766.2,4020.4,5203.7,4022.3,5422.5,3997.2z"/><path d="M5178.6,2330.2c-211-25.2-476.3-98.7-673.8-183.9c-486-211-902.2-637-1097.8-1122.9l-32.9-83.3h-402.7c-292.4,0-412.4-5.8-435.6-25.2c-29-19.4-34.9-62-34.9-304c0-154.9,3.9-294.3,11.6-313.7c19.4-46.5,67.8-54.2,412.4-54.2h313.7V88.2V-66.7h-356.2c-238.1,0-362.1-7.7-371.7-21.3c-5.8-11.6-11.6-149.1-11.6-304c1.9-245.9,5.8-286.5,34.9-307.9c25.2-19.4,139.4-25.2,427.9-25.2h393l23.2-52.3c137.5-342.7,253.6-520.8,480.1-741.5c358.2-350.4,828.6-540.2,1434.6-573.1c499.5-29,1264.3,114.2,1335.9,247.8c15.5,29,5.8,94.9-44.5,280.7c-81.3,311.7-85.2,313.7-305.9,238.1c-267.2-91-489.8-122-813.2-110.4c-431.7,15.5-728,123.9-985.5,356.3c-100.7,91-273,307.8-273,342.7c0,7.7,352.4,11.6,784.1,11.6c758.9,0,786.1,2,822.8,38.7c34.8,34.8,38.7,63.9,38.7,296.2c0,176.2-7.7,269.1-23.2,290.4c-23.2,29-106.5,32.9-915.8,36.8L4022.7-57l-5.8,151l-5.8,149.1h863.5c859.6,0,921.6,3.9,962.2,65.8c7.7,11.6,15.5,141.3,15.5,288.5c0,240.1-3.9,269.1-38.7,304c-36.8,36.8-63.9,38.7-832.5,38.7h-795.7l44.5,79.4c65.8,116.2,290.4,352.4,416.3,435.6c238.1,158.8,547.9,242,906.1,244c265.2,3.9,462.7-25.2,658.3-94.9c180-63.9,247.8-73.6,276.9-38.7c32.9,38.7,162.6,474.3,154.9,524.7c-11.6,87.1-358.2,201.3-735.7,243.9C5685.8,2357.3,5378,2355.4,5178.6,2330.2z"/></g></g>
</svg>